<mxfile host="app.diagrams.net" modified="2024-01-22T08:37:17.364Z" agent="Mozilla/5.0 (Windows NT 10.0; WOW64) AppleWebKit/537.36 (KHTML, like Gecko) Chrome/86.0.4240.198 Safari/537.36" etag="OzFR0aIyVfNXerTaRkk6" version="22.1.21" type="github">
  <diagram name="Page-1" id="19d8dcba-68ad-dc05-1034-9cf7b2a963f6">
    <mxGraphModel dx="1101" dy="639" grid="0" gridSize="10" guides="1" tooltips="1" connect="1" arrows="1" fold="1" page="1" pageScale="1" pageWidth="4681" pageHeight="3300" background="none" math="0" shadow="0">
      <root>
        <mxCell id="0" />
        <mxCell id="1" parent="0" />
        <mxCell id="cmfV4zfynbJacYZtKS8L-4" style="edgeStyle=orthogonalEdgeStyle;rounded=0;orthogonalLoop=1;jettySize=auto;html=1;exitX=0.5;exitY=1;exitDx=0;exitDy=0;entryX=0.5;entryY=0;entryDx=0;entryDy=0;endArrow=none;endFill=0;" edge="1" parent="1" source="cmfV4zfynbJacYZtKS8L-2" target="cmfV4zfynbJacYZtKS8L-3">
          <mxGeometry relative="1" as="geometry" />
        </mxCell>
        <mxCell id="cmfV4zfynbJacYZtKS8L-7" style="edgeStyle=orthogonalEdgeStyle;rounded=0;orthogonalLoop=1;jettySize=auto;html=1;exitX=0.5;exitY=1;exitDx=0;exitDy=0;endArrow=none;endFill=0;entryX=0.5;entryY=0;entryDx=0;entryDy=0;" edge="1" parent="1" source="cmfV4zfynbJacYZtKS8L-2" target="cmfV4zfynbJacYZtKS8L-5">
          <mxGeometry relative="1" as="geometry">
            <mxPoint x="1040" y="557" as="targetPoint" />
          </mxGeometry>
        </mxCell>
        <mxCell id="cmfV4zfynbJacYZtKS8L-9" style="edgeStyle=orthogonalEdgeStyle;rounded=0;orthogonalLoop=1;jettySize=auto;html=1;exitX=0.5;exitY=1;exitDx=0;exitDy=0;endArrow=none;endFill=0;" edge="1" parent="1" source="cmfV4zfynbJacYZtKS8L-2" target="cmfV4zfynbJacYZtKS8L-6">
          <mxGeometry relative="1" as="geometry" />
        </mxCell>
        <mxCell id="cmfV4zfynbJacYZtKS8L-2" value="&lt;font style=&quot;font-size: 24px;&quot;&gt;数据融合&lt;/font&gt;" style="rounded=1;whiteSpace=wrap;html=1;" vertex="1" parent="1">
          <mxGeometry x="924" y="418" width="233" height="59" as="geometry" />
        </mxCell>
        <mxCell id="cmfV4zfynbJacYZtKS8L-11" style="edgeStyle=orthogonalEdgeStyle;rounded=0;orthogonalLoop=1;jettySize=auto;html=1;exitX=0.5;exitY=1;exitDx=0;exitDy=0;entryX=0.5;entryY=0;entryDx=0;entryDy=0;endArrow=none;endFill=0;" edge="1" parent="1" source="cmfV4zfynbJacYZtKS8L-3" target="cmfV4zfynbJacYZtKS8L-10">
          <mxGeometry relative="1" as="geometry" />
        </mxCell>
        <mxCell id="cmfV4zfynbJacYZtKS8L-13" style="edgeStyle=orthogonalEdgeStyle;rounded=0;orthogonalLoop=1;jettySize=auto;html=1;exitX=0.5;exitY=1;exitDx=0;exitDy=0;endArrow=none;endFill=0;" edge="1" parent="1" source="cmfV4zfynbJacYZtKS8L-3" target="cmfV4zfynbJacYZtKS8L-12">
          <mxGeometry relative="1" as="geometry" />
        </mxCell>
        <mxCell id="cmfV4zfynbJacYZtKS8L-3" value="&lt;font style=&quot;font-size: 24px;&quot;&gt;数据级融合&lt;/font&gt;" style="rounded=1;whiteSpace=wrap;html=1;" vertex="1" parent="1">
          <mxGeometry x="598" y="613" width="233" height="59" as="geometry" />
        </mxCell>
        <mxCell id="cmfV4zfynbJacYZtKS8L-37" style="edgeStyle=orthogonalEdgeStyle;rounded=0;orthogonalLoop=1;jettySize=auto;html=1;exitX=0.5;exitY=1;exitDx=0;exitDy=0;endArrow=none;endFill=0;" edge="1" parent="1" source="cmfV4zfynbJacYZtKS8L-5" target="cmfV4zfynbJacYZtKS8L-36">
          <mxGeometry relative="1" as="geometry" />
        </mxCell>
        <mxCell id="cmfV4zfynbJacYZtKS8L-41" style="edgeStyle=orthogonalEdgeStyle;rounded=0;orthogonalLoop=1;jettySize=auto;html=1;exitX=0.5;exitY=1;exitDx=0;exitDy=0;endArrow=none;endFill=0;" edge="1" parent="1" source="cmfV4zfynbJacYZtKS8L-5" target="cmfV4zfynbJacYZtKS8L-40">
          <mxGeometry relative="1" as="geometry" />
        </mxCell>
        <mxCell id="cmfV4zfynbJacYZtKS8L-5" value="&lt;font style=&quot;font-size: 24px;&quot;&gt;特征级融合&lt;/font&gt;" style="rounded=1;whiteSpace=wrap;html=1;" vertex="1" parent="1">
          <mxGeometry x="924" y="613" width="233" height="59" as="geometry" />
        </mxCell>
        <mxCell id="cmfV4zfynbJacYZtKS8L-33" style="edgeStyle=orthogonalEdgeStyle;rounded=0;orthogonalLoop=1;jettySize=auto;html=1;exitX=0.5;exitY=1;exitDx=0;exitDy=0;entryX=0.5;entryY=0;entryDx=0;entryDy=0;endArrow=none;endFill=0;" edge="1" parent="1" source="cmfV4zfynbJacYZtKS8L-6" target="cmfV4zfynbJacYZtKS8L-29">
          <mxGeometry relative="1" as="geometry" />
        </mxCell>
        <mxCell id="cmfV4zfynbJacYZtKS8L-34" style="edgeStyle=orthogonalEdgeStyle;rounded=0;orthogonalLoop=1;jettySize=auto;html=1;exitX=0.5;exitY=1;exitDx=0;exitDy=0;endArrow=none;endFill=0;" edge="1" parent="1" source="cmfV4zfynbJacYZtKS8L-6" target="cmfV4zfynbJacYZtKS8L-30">
          <mxGeometry relative="1" as="geometry" />
        </mxCell>
        <mxCell id="cmfV4zfynbJacYZtKS8L-35" style="edgeStyle=orthogonalEdgeStyle;rounded=0;orthogonalLoop=1;jettySize=auto;html=1;exitX=0.5;exitY=1;exitDx=0;exitDy=0;endArrow=none;endFill=0;" edge="1" parent="1" source="cmfV4zfynbJacYZtKS8L-6" target="cmfV4zfynbJacYZtKS8L-31">
          <mxGeometry relative="1" as="geometry" />
        </mxCell>
        <mxCell id="cmfV4zfynbJacYZtKS8L-6" value="&lt;font style=&quot;font-size: 24px;&quot;&gt;决策级融合&lt;/font&gt;" style="rounded=1;whiteSpace=wrap;html=1;" vertex="1" parent="1">
          <mxGeometry x="1247" y="613" width="233" height="59" as="geometry" />
        </mxCell>
        <mxCell id="cmfV4zfynbJacYZtKS8L-10" value="&lt;font style=&quot;font-size: 24px;&quot;&gt;加&lt;br&gt;权&lt;br&gt;平&lt;br&gt;均&lt;br&gt;法&lt;/font&gt;" style="rounded=1;whiteSpace=wrap;html=1;" vertex="1" parent="1">
          <mxGeometry x="635" y="755" width="59" height="264" as="geometry" />
        </mxCell>
        <mxCell id="cmfV4zfynbJacYZtKS8L-12" value="&lt;span style=&quot;font-size: 24px;&quot;&gt;数&lt;br&gt;理&lt;br&gt;统&lt;br&gt;计&lt;br&gt;法&lt;/span&gt;" style="rounded=1;whiteSpace=wrap;html=1;" vertex="1" parent="1">
          <mxGeometry x="739" y="755" width="59" height="264" as="geometry" />
        </mxCell>
        <mxCell id="cmfV4zfynbJacYZtKS8L-29" value="&lt;span style=&quot;font-size: 24px;&quot;&gt;模&lt;br&gt;糊&lt;br&gt;推&lt;br&gt;理&lt;br&gt;法&lt;/span&gt;" style="rounded=1;whiteSpace=wrap;html=1;" vertex="1" parent="1">
          <mxGeometry x="1250" y="755" width="59" height="264" as="geometry" />
        </mxCell>
        <mxCell id="cmfV4zfynbJacYZtKS8L-30" value="&lt;span style=&quot;font-size: 24px;&quot;&gt;贝&lt;br&gt;叶&lt;br&gt;斯&lt;br&gt;估&lt;br&gt;计&lt;br&gt;法&lt;/span&gt;" style="rounded=1;whiteSpace=wrap;html=1;" vertex="1" parent="1">
          <mxGeometry x="1334" y="755" width="59" height="264" as="geometry" />
        </mxCell>
        <mxCell id="cmfV4zfynbJacYZtKS8L-31" value="&lt;span style=&quot;font-size: 24px;&quot;&gt;D&lt;br&gt;S&lt;br&gt;证&lt;br&gt;据&lt;br&gt;理&lt;br&gt;论&lt;/span&gt;" style="rounded=1;whiteSpace=wrap;html=1;" vertex="1" parent="1">
          <mxGeometry x="1426" y="755" width="59" height="264" as="geometry" />
        </mxCell>
        <mxCell id="cmfV4zfynbJacYZtKS8L-36" value="&lt;span style=&quot;font-size: 24px;&quot;&gt;卡&lt;br&gt;尔&lt;br&gt;曼&lt;br&gt;滤&lt;br&gt;波&lt;br&gt;法&lt;br&gt;&lt;/span&gt;" style="rounded=1;whiteSpace=wrap;html=1;" vertex="1" parent="1">
          <mxGeometry x="966" y="755" width="59" height="264" as="geometry" />
        </mxCell>
        <mxCell id="cmfV4zfynbJacYZtKS8L-40" value="&lt;span style=&quot;font-size: 24px;&quot;&gt;神&lt;br&gt;经&lt;br&gt;网&lt;br&gt;络&lt;br&gt;法&lt;/span&gt;" style="rounded=1;whiteSpace=wrap;html=1;" vertex="1" parent="1">
          <mxGeometry x="1057" y="755" width="59" height="264" as="geometry" />
        </mxCell>
      </root>
    </mxGraphModel>
  </diagram>
</mxfile>
